<?xml version="1.0" standalone="no"?><!DOCTYPE svg PUBLIC "-//W3C//DTD SVG 1.1//EN" "http://www.w3.org/Graphics/SVG/1.1/DTD/svg11.dtd"><svg t="1552928443440" class="icon" style="" viewBox="0 0 1114 1024" version="1.1" xmlns="http://www.w3.org/2000/svg" p-id="7662" xmlns:xlink="http://www.w3.org/1999/xlink" width="69.625" height="64"><defs><style type="text/css"></style></defs><path d="M564.900868 977.984011l-476.199889-212.51895c1.514 0.909-42.07999-15.741996-73.261983-33.602993 0 26.337994 6.659998 55.702987 31.484993 68.719984l466.209891 208.583951c41.17099 19.374995 59.032986 19.374995 103.534975 0l466.209891-208.582951c23.006995-10.595998 31.483993-41.77799 31.483993-68.720984-29.969993 14.833997-72.353983 36.327991-73.261983 36.327992l-476.199888 208.279951v1.514M43.59399 364.646155l470.14489 209.188951c41.47499 19.374995 59.335986 19.374995 104.442975 0l470.14589-209.188951c34.510992-16.044996 35.721992-83.85698 0-103.231976L618.181855 15.897236C581.249864-5.899759 555.21387-4.689759 513.73988 15.897236L43.59399 261.414179c-35.722992 23.007995-36.933991 83.85698 0 103.231976z m522.819877-326.043924c0.606 0.303 2.422999 0.605 3.028 0.605l509.49988 272.157936-511.01388 228.866946L52.372988 311.668167 567.625867 38.602231h-1.211z" p-id="7663" fill="#9EA3A9"></path><path d="M46.923989 582.312104l466.209891 208.582951c41.17099 19.374995 59.032986 19.374995 103.534975 0l466.209891-208.582951c23.006995-10.595998 31.483993-43.29099 31.483993-70.234984-29.969993 14.833997-72.353983 36.327991-73.261983 36.327991l-476.199888 211.005951-476.199889-211.005951c1.514 0.909-42.07999-18.769996-73.261983-36.327991 0 26.337994 6.659998 57.216987 31.484993 70.234984m0 0" p-id="7664" fill="#9EA3A9"></path></svg>