<?xml version="1.0" standalone="no"?><!DOCTYPE svg PUBLIC "-//W3C//DTD SVG 1.1//EN" "http://www.w3.org/Graphics/SVG/1.1/DTD/svg11.dtd"><svg t="1552928492024" class="icon" style="" viewBox="0 0 1024 1024" version="1.1" xmlns="http://www.w3.org/2000/svg" p-id="9376" xmlns:xlink="http://www.w3.org/1999/xlink" width="64" height="64"><defs><style type="text/css"></style></defs><path d="M64.011264 66.167808l64.512 0 0 894.976-64.512 0 0-894.976Z" p-id="9377" fill="#9EA3A9"></path><path d="M576.011264 321.020928c0-43.008 0-86.016 0-129.024-43.008 10.335232-86.016 20.6848-129.024 27.539456 0 43.008 0 86.016 0 129.024C489.995264 341.706752 533.003264 331.357184 576.011264 321.020928z" p-id="9378" fill="#9EA3A9"></path><path d="M704.011264 38.752256c-42.667008 6.79936-85.332992 17.03936-128 27.292672 0 41.984 0 83.968 0 125.952 42.667008-10.253312 85.332992-20.493312 128-27.292672C704.011264 122.720256 704.011264 80.736256 704.011264 38.752256z" p-id="9379" fill="#9EA3A9"></path><path d="M446.987264 93.584384c-41.984 6.689792-83.968 10.048512-125.952 6.810624 0 41.984 0 83.968 0 125.952 41.984 3.237888 83.968-0.120832 125.952-6.810624C446.987264 177.552384 446.987264 135.568384 446.987264 93.584384z" p-id="9380" fill="#9EA3A9"></path><path d="M192.011264 192.119808c0 43.008 0 86.016 0 129.024 43.008 20.671488 86.016 30.910464 129.024 34.2272 0-43.008 0-86.016 0-129.024C278.027264 223.030272 235.019264 212.791296 192.011264 192.119808z" p-id="9381" fill="#9EA3A9"></path><path d="M958.987264 449.143808c0-42.667008 0-85.332992 0-128-41.984-20.179968-83.968-30.416896-125.952-33.978368 0 42.667008 0 85.332992 0 128C875.019264 418.726912 917.003264 428.964864 958.987264 449.143808z" p-id="9382" fill="#9EA3A9"></path><path d="M704.011264 550.752256c43.008-6.852608 86.016-10.211328 129.024-6.561792 0-43.008 0-86.016 0-129.024-43.008-3.648512-86.016-0.290816-129.024 6.562816C704.011264 464.736256 704.011264 507.744256 704.011264 550.752256z" p-id="9383" fill="#9EA3A9"></path><path d="M446.987264 605.584384c43.008-6.853632 86.016-17.2032 129.024-27.539456 0-43.008 0-86.016 0-129.024-43.008 10.335232-86.016 20.6848-129.024 27.539456C446.987264 519.568384 446.987264 562.576384 446.987264 605.584384z" p-id="9384" fill="#9EA3A9"></path><path d="M192.011264 578.167808c43.008 20.671488 86.016 30.911488 129.024 34.2272 0-43.008 0-86.016 0-129.024-43.008-3.316736-86.016-13.555712-129.024-34.2272C192.011264 492.151808 192.011264 535.159808 192.011264 578.167808z" p-id="9385" fill="#9EA3A9"></path><path d="M704.011264 164.704256c0 43.008 0 86.016 0 129.024 43.008-6.853632 86.016-10.211328 129.024-6.562816 0-43.008 0-86.016 0-129.024C790.027264 154.492928 747.019264 157.850624 704.011264 164.704256z" p-id="9386" fill="#9EA3A9"></path><path d="M958.987264 66.167808c-41.984-20.179968-83.968-30.416896-125.952-33.978368 0 41.984 0 83.968 0 125.952 41.984 3.561472 83.968 13.799424 125.952 33.978368C958.987264 150.135808 958.987264 108.151808 958.987264 66.167808z" p-id="9387" fill="#9EA3A9"></path><path d="M576.011264 321.020928c0 42.667008 0 85.332992 0 128 42.667008-10.253312 85.332992-20.493312 128-27.292672 0-42.667008 0-85.332992 0-128C661.344256 300.527616 618.678272 310.767616 576.011264 321.020928z" p-id="9388" fill="#9EA3A9"></path><path d="M321.035264 355.371008c0 42.667008 0 85.332992 0 128 41.984 3.237888 83.968-0.120832 125.952-6.810624 0-42.667008 0-85.332992 0-128C405.003264 355.250176 363.019264 358.608896 321.035264 355.371008z" p-id="9389" fill="#9EA3A9"></path></svg>