<?xml version="1.0" encoding="iso-8859-1"?>
<!-- Generator: Adobe Illustrator 19.0.0, SVG Export Plug-In . SVG Version: 6.00 Build 0)  -->
<svg version="1.1" id="Layer_1" xmlns="http://www.w3.org/2000/svg" xmlns:xlink="http://www.w3.org/1999/xlink" x="0px" y="0px"
	 viewBox="0 0 489.934 489.934" style="enable-background:new 0 0 489.934 489.934;" xml:space="preserve">
<g>
	<g>
		<path d="M485.967,233.617c-74-91-153.9-137.2-237.7-137.2c-33.2,0-66.8,7.4-100,21.9c-26.1,11.5-52,27.4-76.9,47.3
			c-42.1,33.7-66.9,67.3-67.9,68.7c-4.8,6.6-4.6,15.6,0.5,22c73.9,91.1,153.9,137.2,237.7,137.2c33.2,0,66.8-7.4,100-21.9
			c26.1-11.5,52-27.4,76.9-47.3c42.1-33.7,66.9-67.3,67.9-68.7C491.267,249.017,491.067,240.017,485.967,233.617z M395.267,296.817
			c-34.8,27.7-89.6,60.7-153.6,60.7c-69.1,0-136.5-37.9-200.5-112.7c10.1-11.9,28.6-31.8,53.4-51.6c34.8-27.7,89.6-60.7,153.6-60.7
			c69.1,0,136.5,37.9,200.5,112.7C438.567,257.117,420.067,277.117,395.267,296.817z"/>
	</g>
</g>
<g>
	<g>
		<path d="M311.267,227.017c-9.9,0-18,8.1-18,18c0,26.7-21.7,48.4-48.4,48.4c-26.7,0-48.4-21.7-48.4-48.4
			c0-26.7,21.7-48.4,48.4-48.4c9.9,0,18-8.1,18-18c0-9.9-8.1-18-18-18c-46.6,0-84.4,37.9-84.4,84.4s37.8,84.4,84.4,84.4
			c46.6,0,84.4-37.9,84.4-84.4C329.267,235.117,321.167,227.017,311.267,227.017z"/>
	</g>
</g>
<g>
</g>
<g>
</g>
<g>
</g>
<g>
</g>
<g>
</g>
<g>
</g>
<g>
</g>
<g>
</g>
<g>
</g>
<g>
</g>
<g>
</g>
<g>
</g>
<g>
</g>
<g>
</g>
<g>
</g>
</svg>
