<?xml version="1.0" standalone="no"?><!DOCTYPE svg PUBLIC "-//W3C//DTD SVG 1.1//EN" "http://www.w3.org/Graphics/SVG/1.1/DTD/svg11.dtd"><svg t="1574149634194" class="icon" viewBox="0 0 1024 1024" version="1.1" xmlns="http://www.w3.org/2000/svg" p-id="3890" xmlns:xlink="http://www.w3.org/1999/xlink" width="200" height="200"><defs><style type="text/css"></style></defs><path d="M862.296403 788.258993a29.467626 29.467626 0 0 0-29.467626 29.467626v117.870503a29.467626 29.467626 0 0 1-29.467626 29.467626h-692.489209a29.467626 29.467626 0 0 1-29.467625-29.467626V88.402878a29.467626 29.467626 0 0 1 29.467625-29.467626h427.280576v213.640288a88.402878 88.402878 0 0 0 88.402878 88.402877h206.273381v7.366907a29.467626 29.467626 0 1 0 58.935252 0v-36.834533-0.442014a32.340719 32.340719 0 0 0-0.515684-5.304173v-0.957698a22.763741 22.763741 0 0 0-1.252374-3.978129 7.366906 7.366906 0 0 0-0.663021-1.54705 29.467626 29.467626 0 0 0-1.768058-3.388777 10.313669 10.313669 0 0 0-0.736691-1.178705 29.90964 29.90964 0 0 0-3.0941-3.757123l-294.676259-302.043165-0.736691-0.663022a28.215252 28.215252 0 0 0-3.241439-2.652086l-1.915395-1.031367a26.668201 26.668201 0 0 0-3.16777-1.768058l-1.547051-0.663021a26.741871 26.741871 0 0 0-4.862158-1.54705h-0.442014a22.100719 22.100719 0 0 0-4.862159-0.589353H110.871942a88.402878 88.402878 0 0 0-88.402877 88.402878v847.194244a88.402878 88.402878 0 0 0 88.402877 88.402878h692.489209a88.402878 88.402878 0 0 0 88.402878-88.402878v-117.870503a29.467626 29.467626 0 0 0-29.467626-29.467626z m-235.741007-486.215828a29.467626 29.467626 0 0 1-29.467626-29.467625V101.884317L792.38446 302.043165z" fill="#333333" p-id="3891"></path><path d="M177.174101 243.107914h257.841726a29.467626 29.467626 0 0 0 0-58.935252h-257.841726a29.467626 29.467626 0 1 0 0 58.935252zM177.174101 434.647482h257.841726a29.467626 29.467626 0 0 0 0-58.935252h-257.841726a29.467626 29.467626 0 1 0 0 58.935252zM552.886331 596.719424a29.467626 29.467626 0 0 0-29.467626-29.467625h-346.244604a29.467626 29.467626 0 1 0 0 58.935251h346.244604a29.467626 29.467626 0 0 0 29.467626-29.467626zM177.174101 758.791367a29.467626 29.467626 0 0 0 0 58.935252h235.741007a29.467626 29.467626 0 1 0 0-58.935252zM992.911655 531.006619l-83.319713-83.393382a29.467626 29.467626 0 0 0-41.69669 0L552.517986 763.211511a29.467626 29.467626 0 0 0-7.808921 13.923453l-26.447194 109.766907a29.467626 29.467626 0 0 0 28.657266 36.392517 31.088345 31.088345 0 0 0 6.851223-0.810359l109.840575-26.447194a29.467626 29.467626 0 0 0 14.144461-7.808921l315.524604-315.524605a29.467626 29.467626 0 0 0-0.368345-41.69669z m-351.32777 309.410072l-54.883453 13.260431 13.186762-54.883453 288.856403-288.856403 41.696691 41.696691z" fill="#333333" p-id="3892"></path></svg>