<?xml version="1.0" standalone="no"?><!DOCTYPE svg PUBLIC "-//W3C//DTD SVG 1.1//EN" "http://www.w3.org/Graphics/SVG/1.1/DTD/svg11.dtd"><svg t="1571648486095" class="icon" viewBox="0 0 1024 1024" version="1.1" xmlns="http://www.w3.org/2000/svg" p-id="2578" xmlns:xlink="http://www.w3.org/1999/xlink" width="200" height="200"><defs><style type="text/css"></style></defs><path d="M932.009889 104.314811 114.462938 104.314811c-11.039427 0-19.989263 8.948813-19.989263 19.989263l0 89.801259c0 11.039427 8.948813 19.989263 19.989263 19.989263l44.660152 0 0 690.583305-34.647101 0c-11.039427 0-19.989263 8.916067-19.989263 19.954471s8.948813 19.954471 19.989263 19.954471l795.560194 0c11.038404 0 19.989263-8.916067 19.989263-19.954471s-8.949836-19.954471-19.989263-19.954471l-32.685423 0L887.35076 234.094596l44.659129 0c11.038404 0 19.989263-8.948813 19.989263-19.989263L951.999153 124.304074C951.998129 113.264647 943.048293 104.314811 932.009889 104.314811zM847.373257 921.863808 607.185896 921.863808l0-521.712199c0-46.291302-37.661761-83.954087-83.954087-83.954087-46.291302 0-83.953064 37.661761-83.953064 83.954087l0 521.712199L199.100594 921.863808 199.100594 234.094596 847.373257 234.094596 847.373257 921.863808zM479.256248 919.865291 479.256248 400.151609c0-24.248264 19.727297-43.975561 43.976584-43.975561 24.24724 0 43.974537 19.727297 43.974537 43.975561l0 519.713682L479.256248 919.865291zM912.020626 194.116069 134.452201 194.116069l0-49.822732 777.568425 0L912.020626 194.116069z" p-id="2579"></path><path d="M382.237611 390.096603c0-37.863353-30.575366-68.668962-68.049862-68.668962s-68.049862 30.80561-68.049862 68.668962l0 112.978121 136.099724 0L382.237611 390.096603zM342.328669 463.165782l-56.281841 0 0-73.069179c0-16.08842 12.44852-28.691459 28.14092-28.691459s28.14092 12.602016 28.14092 28.691459L342.328669 463.165782z" p-id="2580"></path><path d="M382.237611 627.966175c0-37.863353-30.575366-68.668962-68.049862-68.668962s-68.049862 30.80561-68.049862 68.668962l0 172.891675 136.099724 0L382.237611 627.966175zM342.328669 760.947885l-56.281841 0L286.046828 627.966175c0-16.08842 12.44852-28.691459 28.14092-28.691459s28.14092 12.602016 28.14092 28.691459L342.328669 760.947885z" p-id="2581"></path><path d="M793.606703 390.096603c0-37.863353-30.062689-68.668962-67.538209-68.668962s-67.538209 30.80561-67.538209 68.668962l0 112.978121 135.076418 0L793.606703 390.096603zM753.697761 463.165782l-55.258535 0 0-73.069179c0-16.08842 11.936867-28.691459 27.629267-28.691459s27.629267 12.602016 27.629267 28.691459L753.697761 463.165782z" p-id="2582"></path><path d="M793.606703 627.966175c0-37.863353-30.062689-68.668962-67.538209-68.668962s-67.538209 30.80561-67.538209 68.668962l0 172.891675 135.076418 0L793.606703 627.966175zM753.697761 760.947885l-55.258535 0L698.439226 627.966175c0-16.08842 11.936867-28.691459 27.629267-28.691459s27.629267 12.602016 27.629267 28.691459L753.697761 760.947885z" p-id="2583"></path></svg>