<?xml version="1.0" standalone="no"?><!DOCTYPE svg PUBLIC "-//W3C//DTD SVG 1.1//EN" "http://www.w3.org/Graphics/SVG/1.1/DTD/svg11.dtd"><svg t="1571648671220" class="icon" viewBox="0 0 1024 1024" version="1.1" xmlns="http://www.w3.org/2000/svg" p-id="3055" xmlns:xlink="http://www.w3.org/1999/xlink" width="200" height="200"><defs><style type="text/css"></style></defs><path d="M664.343687 328.875263c0-82.751702-67.313082-150.073994-150.051481-150.073994-82.744539 0-150.062737 67.322291-150.062737 150.073994 0 82.73226 67.318198 150.039201 150.062737 150.039201C597.030605 478.914464 664.343687 411.607522 664.343687 328.875263zM404.243811 328.875263c0-60.686151 49.366338-110.058628 110.048395-110.058628 60.673871 0 110.036116 49.372477 110.036116 110.058628 0 60.667731-49.362244 110.024859-110.036116 110.024859C453.610148 438.899098 404.243811 389.542994 404.243811 328.875263z" p-id="3056"></path><path d="M854.769714 740.802056c-45.598524-17.971303-105.630782-31.79924-175.007873-40.427758 71.163783-117.373221 120.31318-251.488755 120.31318-347.248725 0-154.791435-128.627543-280.723589-286.730397-280.723589S226.615251 198.333114 226.615251 353.12455c0 70.542636 28.17162 168.121022 77.29134 267.715321 13.411451 27.192316 28.02017 53.784974 43.474141 79.3093-70.082148 8.607028-130.701784 22.511713-176.680978 40.619116-61.159942 24.089651-92.171236 53.972239-92.171236 88.820931 0 42.140773 46.952358 77.92272 135.780453 103.476723 79.973426 23.006993 185.940876 35.677571 298.386878 35.677571 112.442932 0 218.411405-12.670577 298.385854-35.677571 88.829118-25.555026 135.780453-61.33595 135.780453-103.476723C946.861132 794.755876 915.877467 764.883521 854.769714 740.802056zM266.630616 353.12455c0-132.726907 110.674659-240.708224 246.712985-240.708224s246.715031 107.981317 246.715031 240.708224c0 94.172823-54.260811 233.262648-129.251759 349.664751-1.7519 1.815345-3.169179 3.964288-4.140297 6.361895-33.43653 51.011814-70.787206 97.368608-109.181655 133.234467l-1.088798 1.095961c-0.578168 0.633427-1.578961 1.385557-3.053546 1.385557-1.488911 0-2.485611-0.765433-3.059686-1.411139l-1.248434-1.280156C382.169049 723.295334 266.630616 490.196415 266.630616 353.12455zM800.018739 894.610094c-76.476789 22.002107-178.517813 34.118052-287.322891 34.118052-108.807125 0-210.846102-12.115945-287.323914-34.118052-78.850859-22.682605-106.828051-49.202609-106.828051-65.020876 0-27.437909 78.523401-73.447802 252.695233-91.89392 34.644031 51.954279 72.376401 97.909937 109.87341 133.151579 8.345062 8.933463 20.033265 14.034645 32.231075 14.034645 12.023848 0 23.614837-4.986571 31.94148-13.70821 39.065737-36.579103 76.732615-82.664721 110.585631-133.293819 172.969447 18.568914 250.975055 64.373123 250.975055 91.709725C906.845767 845.408509 878.868575 871.927489 800.018739 894.610094z" p-id="3057"></path></svg>