<?xml version="1.0" standalone="no"?><!DOCTYPE svg PUBLIC "-//W3C//DTD SVG 1.1//EN" "http://www.w3.org/Graphics/SVG/1.1/DTD/svg11.dtd"><svg t="1552928551635" class="icon" style="" viewBox="0 0 1255 1024" version="1.1" xmlns="http://www.w3.org/2000/svg" p-id="11041" xmlns:xlink="http://www.w3.org/1999/xlink" width="78.4375" height="64"><defs><style type="text/css"></style></defs><path d="M924.118726 620.644392a335.343647 335.343647 0 1 0-352.470747 0c-164.569088 17.623537-297.862603 180.951531-313.252171 393.923292l49.643767 3.971502c15.141349-196.341099 143.966925-349.988559 293.642883-349.988559h108.471632a361.406625 361.406625 0 0 0 36.984606 1.985751 365.378126 365.378126 0 0 0 36.984607-1.985751h128.080919c151.661709 0 280.735503 155.881429 293.891102 355.201154l49.643767-3.226845C1241.09418 800.603048 1096.630817 627.594519 924.118726 620.644392zM461.438816 335.440949a285.69988 285.69988 0 1 1 319.209423 283.71413h-67.019086a286.196318 286.196318 0 0 1-252.190337-283.71413z" p-id="11042" fill="#9EA3A9"></path><path d="M49.643767 1015.56056H0c3.475064-150.917052 85.635498-273.04072 196.341099-308.784232a252.438556 252.438556 0 0 1 169.781684-439.34734h21.098601l-3.971501 49.643767h-17.1271a202.794789 202.794789 0 0 0-93.330282 383.001664l90.351656 44.679391h-101.769723C147.19377 744.75381 53.118831 866.629258 49.643767 1015.56056z" p-id="11043" fill="#9EA3A9"></path></svg>