<?xml version="1.0" standalone="no"?><!DOCTYPE svg PUBLIC "-//W3C//DTD SVG 1.1//EN" "http://www.w3.org/Graphics/SVG/1.1/DTD/svg11.dtd"><svg t="1552928028356" class="icon" style="" viewBox="0 0 1024 1024" version="1.1" xmlns="http://www.w3.org/2000/svg" p-id="838" xmlns:xlink="http://www.w3.org/1999/xlink" width="64" height="64"><defs><style type="text/css"></style></defs><path d="M862.2 630.4c-0.4 0.6-0.8 1.1-1.1 1.7 0.3-0.6 0.7-1.1 1.1-1.7zM893.7 567.4c-0.2 0.6-0.5 1.3-0.7 1.9 0.3-0.6 0.5-1.3 0.7-1.9zM859.9 633.9c-0.4 0.6-0.8 1.1-1.2 1.7 0.4-0.6 0.8-1.2 1.2-1.7zM910.2 489.1c0 0.7-0.1 1.3-0.2 2 0.1-0.7 0.1-1.4 0.2-2zM910.5 484.7c0 0.6-0.1 1.3-0.1 1.9 0-0.6 0-1.2 0.1-1.9zM901.2 543.5c-0.2 0.7-0.4 1.3-0.5 2 0.1-0.7 0.3-1.4 0.5-2zM895.1 563.5c-0.2 0.6-0.4 1.3-0.7 1.9 0.2-0.7 0.5-1.3 0.7-1.9zM900.1 547.5c-0.2 0.7-0.4 1.3-0.6 2 0.2-0.7 0.4-1.3 0.6-2zM910.9 471.7v0zM884.3 590.5c-0.3 0.6-0.6 1.2-0.9 1.9 0.3-0.7 0.6-1.3 0.9-1.9zM897.7 555.5c-0.2 0.7-0.4 1.3-0.6 2 0.2-0.7 0.4-1.3 0.6-2zM847.6 650.8c-0.4 0.5-0.9 1.1-1.3 1.6 0.5-0.6 0.9-1.1 1.3-1.6zM852.7 644.1c-0.4 0.6-0.8 1.1-1.2 1.7 0.3-0.6 0.8-1.2 1.2-1.7zM910.7 480.4c0 0.6-0.1 1.2-0.1 1.8 0-0.6 0.1-1.2 0.1-1.8zM855.1 640.7c-0.4 0.6-0.8 1.1-1.2 1.7 0.4-0.6 0.8-1.1 1.2-1.7zM910.8 476c0 0.6 0 1.1-0.1 1.7 0.1-0.5 0.1-1.1 0.1-1.7zM896.4 559.5c-0.2 0.6-0.4 1.3-0.6 1.9 0.2-0.6 0.4-1.2 0.6-1.9zM857.5 637.3c-0.4 0.6-0.8 1.1-1.2 1.7 0.4-0.6 0.8-1.1 1.2-1.7zM850.2 647.4c-0.4 0.5-0.8 1.1-1.3 1.6 0.4-0.5 0.8-1 1.3-1.6zM878.9 601.7l-0.9 1.8 0.9-1.8zM907.9 510.4c-0.1 0.7-0.2 1.3-0.3 2 0.1-0.7 0.2-1.3 0.3-2zM902.2 539.4c-0.2 0.7-0.3 1.3-0.5 2 0.2-0.7 0.3-1.3 0.5-2zM877 605.3c-0.3 0.6-0.6 1.2-1 1.8 0.3-0.5 0.7-1.1 1-1.8zM875 609c-0.3 0.6-0.7 1.2-1 1.8 0.4-0.6 0.7-1.2 1-1.8zM887.7 582.9c-0.3 0.6-0.5 1.3-0.8 1.9 0.2-0.7 0.5-1.3 0.8-1.9zM898.9 551.5c-0.2 0.6-0.4 1.3-0.6 1.9 0.2-0.6 0.4-1.2 0.6-1.9zM908.5 506.2c-0.1 0.7-0.2 1.3-0.3 2 0.1-0.7 0.2-1.4 0.3-2zM906.6 518.8c-0.1 0.7-0.2 1.3-0.4 2 0.1-0.7 0.2-1.3 0.4-2zM882.6 594.2l-0.9 1.8 0.9-1.8zM905.8 523c-0.1 0.7-0.3 1.3-0.4 2 0.1-0.7 0.3-1.4 0.4-2zM907.3 514.6c-0.1 0.7-0.2 1.3-0.3 2 0-0.7 0.1-1.3 0.3-2zM880.8 598l-0.9 1.8c0.2-0.6 0.6-1.2 0.9-1.8zM886 586.7c-0.3 0.6-0.6 1.2-0.8 1.9 0.3-0.7 0.5-1.3 0.8-1.9zM905 527.1c-0.1 0.7-0.3 1.3-0.4 2 0.1-0.7 0.3-1.3 0.4-2zM866.7 623.4c-0.4 0.6-0.7 1.2-1.1 1.7 0.3-0.6 0.7-1.2 1.1-1.7zM903.2 535.3c-0.2 0.7-0.3 1.3-0.5 2 0.2-0.6 0.3-1.3 0.5-2zM892.3 571.3c-0.2 0.6-0.5 1.3-0.7 1.9 0.2-0.6 0.4-1.3 0.7-1.9zM868.8 619.8c-0.4 0.6-0.7 1.2-1.1 1.8 0.4-0.6 0.8-1.2 1.1-1.8zM904.1 531.2c-0.1 0.7-0.3 1.3-0.5 2 0.2-0.6 0.4-1.3 0.5-2zM845 654.1c-0.4 0.5-0.9 1.1-1.3 1.6 0.4-0.6 0.9-1.1 1.3-1.6zM909.8 493.4c-0.1 0.7-0.1 1.3-0.2 2 0.1-0.7 0.2-1.4 0.2-2zM864.5 626.9c-0.4 0.6-0.7 1.2-1.1 1.7 0.3-0.6 0.7-1.1 1.1-1.7zM909 501.9c-0.1 0.7-0.2 1.3-0.2 2 0-0.7 0.1-1.3 0.2-2zM909.5 497.6c-0.1 0.7-0.1 1.3-0.2 2 0-0.6 0.1-1.3 0.2-2zM889.3 579c-0.3 0.6-0.5 1.3-0.8 1.9 0.2-0.6 0.5-1.2 0.8-1.9zM873 612.6c-0.3 0.6-0.7 1.2-1 1.8 0.3-0.6 0.7-1.2 1-1.8zM870.9 616.2c-0.3 0.6-0.7 1.2-1 1.8 0.4-0.6 0.7-1.2 1-1.8zM890.8 575.2c-0.2 0.6-0.5 1.3-0.8 1.9 0.3-0.7 0.5-1.3 0.8-1.9zM590.8 791.7c-0.8 0.1-1.6 0.3-2.4 0.4 0.7-0.1 1.5-0.3 2.4-0.4zM595.7 790.9c-0.8 0.1-1.6 0.3-2.4 0.4 0.8-0.1 1.6-0.2 2.4-0.4zM600.6 790.1c-0.8 0.1-1.6 0.3-2.4 0.4 0.8-0.1 1.6-0.3 2.4-0.4zM610.4 788.3c-0.8 0.2-1.6 0.3-2.4 0.5 0.8-0.2 1.6-0.4 2.4-0.5zM615.3 787.3c-0.8 0.2-1.6 0.3-2.4 0.5 0.8-0.2 1.6-0.3 2.4-0.5zM605.5 789.2c-0.8 0.1-1.6 0.3-2.4 0.4 0.8-0.1 1.6-0.2 2.4-0.4zM570.7 794.4c-0.8 0.1-1.6 0.2-2.5 0.3 0.8-0.1 1.6-0.2 2.5-0.3zM671.3 772.1c-0.7 0.3-1.5 0.5-2.2 0.8 0.7-0.3 1.5-0.6 2.2-0.8zM580.8 793.2c-0.8 0.1-1.6 0.2-2.5 0.3 0.8-0.1 1.6-0.2 2.5-0.3zM560.4 795.5c-0.8 0.1-1.6 0.2-2.5 0.2 0.9-0.1 1.7-0.2 2.5-0.2zM585.8 792.5l-2.4 0.3c0.7-0.1 1.6-0.2 2.4-0.3zM575.7 793.8c-0.8 0.1-1.6 0.2-2.5 0.3 0.9-0.1 1.7-0.2 2.5-0.3zM653.1 777.8c-0.8 0.2-1.5 0.4-2.3 0.7 0.8-0.2 1.5-0.4 2.3-0.7zM648.5 779.2c-0.8 0.2-1.5 0.4-2.3 0.6 0.7-0.2 1.5-0.4 2.3-0.6zM657.7 776.5c-0.8 0.2-1.5 0.5-2.3 0.7 0.8-0.3 1.5-0.5 2.3-0.7zM662.3 775c-0.8 0.2-1.5 0.5-2.3 0.7 0.8-0.2 1.5-0.4 2.3-0.7zM666.8 773.6c-0.7 0.2-1.5 0.5-2.2 0.7 0.7-0.2 1.5-0.5 2.2-0.7zM634.4 782.9c-0.8 0.2-1.5 0.4-2.3 0.6 0.8-0.2 1.5-0.4 2.3-0.6zM629.7 784.1l-2.4 0.6 2.4-0.6zM624.9 785.2c-0.8 0.2-1.6 0.4-2.4 0.5 0.8-0.1 1.6-0.3 2.4-0.5zM639.1 781.7c-0.8 0.2-1.5 0.4-2.3 0.6 0.8-0.2 1.5-0.4 2.3-0.6zM643.8 780.5c-0.8 0.2-1.5 0.4-2.3 0.6 0.8-0.2 1.5-0.4 2.3-0.6zM620.1 786.3c-0.8 0.2-1.6 0.3-2.4 0.5 0.8-0.2 1.6-0.4 2.4-0.5zM565.6 795c-0.8 0.1-1.6 0.2-2.5 0.3 0.8-0.2 1.6-0.3 2.5-0.3zM555.3 795.9c-0.8 0.1-1.6 0.1-2.5 0.2 0.9-0.1 1.7-0.1 2.5-0.2zM534.6 797.2c-0.8 0-1.7 0.1-2.5 0.1 0.8 0 1.7 0 2.5-0.1zM539.8 797c-0.8 0-1.7 0.1-2.5 0.1 0.8 0 1.7-0.1 2.5-0.1zM550.2 796.3c-0.8 0.1-1.7 0.1-2.5 0.2 0.8-0.1 1.7-0.1 2.5-0.2zM545 796.7c-0.8 0.1-1.7 0.1-2.5 0.2 0.8-0.1 1.7-0.2 2.5-0.2zM529.4 797.4c-0.9 0-1.7 0.1-2.6 0.1 0.9 0 1.7-0.1 2.6-0.1zM524.1 797.6c-0.8 0-1.7 0-2.5 0.1 0.8-0.1 1.6-0.1 2.5-0.1zM518.8 797.7h-2.5 2.5zM675.8 770.5c-0.7 0.3-1.5 0.5-2.2 0.8 0.7-0.3 1.4-0.5 2.2-0.8zM797.3 702.5c-0.5 0.5-1.1 0.9-1.7 1.4 0.6-0.5 1.1-0.9 1.7-1.4zM793.9 705.3c-0.6 0.5-1.1 0.9-1.7 1.3 0.6-0.4 1.2-0.9 1.7-1.3zM807.1 694.1c-0.5 0.5-1.1 0.9-1.6 1.4 0.5-0.5 1.1-1 1.6-1.4zM803.9 696.9c-0.5 0.5-1.1 0.9-1.6 1.4 0.5-0.5 1-0.9 1.6-1.4zM800.6 699.7c-0.5 0.5-1.1 0.9-1.6 1.4 0.5-0.5 1-0.9 1.6-1.4zM790.5 708c-0.6 0.4-1.1 0.9-1.7 1.3 0.6-0.4 1.2-0.9 1.7-1.3zM787.1 710.7c-0.6 0.4-1.1 0.9-1.7 1.3 0.6-0.5 1.1-0.9 1.7-1.3zM776.6 718.5c-0.6 0.4-1.2 0.8-1.8 1.3 0.6-0.5 1.2-0.9 1.8-1.3zM769.4 723.5l-1.8 1.2 1.8-1.2zM780.1 715.9c-0.6 0.4-1.2 0.9-1.8 1.3 0.7-0.4 1.2-0.9 1.8-1.3zM783.6 713.3c-0.6 0.4-1.2 0.9-1.7 1.3 0.6-0.4 1.2-0.9 1.7-1.3zM773 721l-1.8 1.2 1.8-1.2zM831.3 670.1c-0.5 0.5-0.9 1-1.4 1.5 0.5-0.5 0.9-1 1.4-1.5zM810.3 691.2c-0.5 0.5-1 1-1.6 1.4 0.5-0.5 1-1 1.6-1.4zM839.7 660.5c-0.4 0.5-0.9 1.1-1.4 1.6 0.5-0.5 0.9-1 1.4-1.6zM828.4 673.2c-0.5 0.5-1 1-1.4 1.5 0.5-0.5 1-1 1.4-1.5zM836.9 663.8c-0.5 0.5-0.9 1-1.4 1.6 0.5-0.6 1-1.1 1.4-1.6zM834.1 666.9c-0.5 0.5-0.9 1-1.4 1.6 0.5-0.5 1-1.1 1.4-1.6zM825.5 676.3l-1.5 1.5 1.5-1.5zM816.5 685.3l-1.5 1.5 1.5-1.5zM813.4 688.3c-0.5 0.5-1 1-1.5 1.4 0.5-0.5 1-1 1.5-1.4zM822.6 679.3l-1.5 1.5 1.5-1.5zM819.5 682.3l-1.5 1.5 1.5-1.5zM680.2 768.9c-0.7 0.3-1.5 0.5-2.2 0.8 0.8-0.3 1.5-0.5 2.2-0.8zM706.2 758.4l-2.1 0.9 2.1-0.9zM710.4 756.5l-2.1 0.9c0.7-0.2 1.4-0.5 2.1-0.9zM701.9 760.3l-2.1 0.9 2.1-0.9zM722.8 750.6c-0.7 0.3-1.3 0.7-2 1 0.7-0.3 1.4-0.6 2-1zM714.6 754.6c-0.7 0.3-1.4 0.6-2.1 1 0.7-0.3 1.4-0.7 2.1-1zM718.7 752.6c-0.7 0.3-1.4 0.7-2 1 0.7-0.3 1.4-0.6 2-1zM684.6 767.3c-0.7 0.3-1.4 0.5-2.2 0.8 0.8-0.3 1.5-0.6 2.2-0.8zM842.4 657.3c-0.4 0.5-0.9 1.1-1.3 1.6 0.4-0.5 0.8-1 1.3-1.6zM697.7 762.1l-2.1 0.9 2.1-0.9zM689 765.6c-0.7 0.3-1.4 0.6-2.2 0.8 0.8-0.3 1.5-0.5 2.2-0.8zM693.4 763.9l-2.1 0.9c0.6-0.4 1.3-0.7 2.1-0.9zM750.6 735.5c-0.6 0.4-1.3 0.8-1.9 1.1 0.7-0.4 1.3-0.7 1.9-1.1zM765.7 726l-1.8 1.2 1.8-1.2zM746.8 737.8c-0.6 0.4-1.3 0.7-1.9 1.1 0.6-0.4 1.2-0.8 1.9-1.1zM754.4 733.2c-0.6 0.4-1.3 0.8-1.9 1.1 0.7-0.4 1.3-0.7 1.9-1.1zM762 728.4l-1.8 1.2c0.5-0.4 1.2-0.8 1.8-1.2zM758.2 730.8zM742.9 740c-0.6 0.4-1.3 0.7-1.9 1.1 0.6-0.4 1.2-0.7 1.9-1.1zM735 744.4c-0.7 0.4-1.3 0.7-2 1.1 0.7-0.4 1.3-0.8 2-1.1zM731 746.5c-0.7 0.3-1.3 0.7-2 1 0.6-0.3 1.3-0.7 2-1zM726.9 748.6c-0.7 0.3-1.3 0.7-2 1 0.7-0.3 1.4-0.7 2-1zM738.9 742.2c-0.6 0.4-1.3 0.7-1.9 1.1 0.6-0.4 1.3-0.7 1.9-1.1z" p-id="839" fill="#9EA3A9"></path><path d="M935.3 449.6L576.6 90.9c-35.7-35.7-93.7-35.7-129.3 0L88.7 449.5c-9.8 9.8-9.8 25.6 0 35.4 9.8 9.8 25.6 9.8 35.4 0l358.6-358.6c16.2-16.2 42.5-16.2 58.6 0L900 484.9c4.9 4.9 11.3 7.3 17.7 7.3s12.8-2.4 17.7-7.3c9.7-9.7 9.7-25.6-0.1-35.3zM850.2 500.2c-13.8 0-25 11.2-25 25v338.1c0 25.2-17.1 46.5-37.4 46.5H685.4c-13.5-0.3-24.4-11.4-24.4-25V702.1c0-61.5-41.6-111.5-92.6-111.5H455.6c-51.1 0-92.6 50-92.6 111.5v184.1c-0.7 12.9-11.3 23.3-24.3 23.6H236.2c-20.3 0-37.4-21.3-37.4-46.5V525.2c0-13.8-11.2-25-25-25s-25 11.2-25 25v338.1c0 53.2 39.2 96.5 87.4 96.5h129.1c26.3 0 47.7-21.4 47.7-47.7v-210c0-33.4 19.5-61.5 42.6-61.5h112.7c23.1 0 42.6 28.2 42.6 61.5v210.1c0 26.3 21.4 47.7 47.7 47.7h129.1c48.2 0 87.4-43.3 87.4-96.5V525.2c0.1-13.9-11.1-25-24.9-25z" p-id="840" fill="#9EA3A9"></path></svg>