<?xml version="1.0" standalone="no"?><!DOCTYPE svg PUBLIC "-//W3C//DTD SVG 1.1//EN" "http://www.w3.org/Graphics/SVG/1.1/DTD/svg11.dtd"><svg t="1569738934274" class="icon" viewBox="0 0 1024 1024" version="1.1" xmlns="http://www.w3.org/2000/svg" p-id="1129" xmlns:xlink="http://www.w3.org/1999/xlink" width="200" height="200"><defs><style type="text/css"></style></defs><path d="M543.5 512l474-474c8.7-8.7 8.7-22.8 0-31.5s-22.8-8.7-31.5 0l-474 474L38 6.5c-8.7-8.7-22.8-8.7-31.5 0s-8.7 22.8 0 31.5l474 474-474 474c-8.7 8.7-8.7 22.8 0 31.5 4.3 4.3 10 6.5 15.7 6.5s11.4-2.2 15.7-6.5l474-474 474 474c4.3 4.3 10 6.5 15.7 6.5 5.7 0 11.4-2.2 15.7-6.5 8.7-8.7 8.7-22.8 0-31.5L543.5 512z" fill="" p-id="1130"></path></svg>