<?xml version="1.0" standalone="no"?><!DOCTYPE svg PUBLIC "-//W3C//DTD SVG 1.1//EN" "http://www.w3.org/Graphics/SVG/1.1/DTD/svg11.dtd"><svg t="1552928530680" class="icon" style="" viewBox="0 0 1024 1024" version="1.1" xmlns="http://www.w3.org/2000/svg" p-id="10272" xmlns:xlink="http://www.w3.org/1999/xlink" width="64" height="64"><defs><style type="text/css"></style></defs><path d="M512 0C305.024 0 137.28 167.744 137.28 374.72S305.024 749.44 512 749.44c206.976 0 374.72-167.744 374.72-374.72S718.976 0 512 0zM512 699.52c-179.392 0-324.736-145.408-324.736-324.736S332.608 49.984 512 49.984c179.392 0 324.736 145.408 324.736 324.736S691.392 699.52 512 699.52z" p-id="10273" fill="#9EA3A9"></path><path d="M512 99.904c-151.744 0-274.816 123.008-274.816 274.816S360.256 649.536 512 649.536c151.744 0 274.816-123.008 274.816-274.816S663.744 99.904 512 99.904zM512 599.552c-124.16 0-224.832-100.672-224.832-224.832S387.84 149.888 512 149.888s224.832 100.672 224.832 224.832S636.16 599.552 512 599.552z" p-id="10274" fill="#9EA3A9"></path><path d="M745.088 624.576l95.36 184.768c-38.72-15.104-83.456-14.336-123.264 6.272-39.872 20.544-66.432 56.512-76.544 96.832L545.28 727.68 512 744.896l140.672 272.64L656.064 1024l33.28-17.216-3.328-6.464c-28.48-55.168-6.848-123.008 48.32-151.424 55.168-28.48 123.008-6.848 151.488 48.384l3.328 6.464 33.28-17.152-3.328-6.464-140.672-272.64L745.088 624.576z" p-id="10275" fill="#9EA3A9"></path><path d="M263.232 654.976l-79.68 154.368c38.72-15.104 83.456-14.336 123.264 6.272 39.808 20.544 66.432 56.512 76.544 96.832l85.376-165.44 40.896 2.432-138.304 268.032L367.936 1024l-33.28-17.216 3.328-6.464c28.48-55.168 6.848-123.008-48.32-151.424-55.168-28.48-123.008-6.848-151.488 48.384L134.848 903.68l-33.28-17.152 3.328-6.464 130.368-252.608L263.232 654.976z" p-id="10276" fill="#9EA3A9"></path></svg>