<?xml version="1.0" standalone="no"?><!DOCTYPE svg PUBLIC "-//W3C//DTD SVG 1.1//EN" "http://www.w3.org/Graphics/SVG/1.1/DTD/svg11.dtd"><svg t="1571648776679" class="icon" viewBox="0 0 1024 1024" version="1.1" xmlns="http://www.w3.org/2000/svg" p-id="3174" xmlns:xlink="http://www.w3.org/1999/xlink" width="200" height="200"><defs><style type="text/css"></style></defs><path d="M535.912619 487.919559 535.912619 335.071382l103.370299 0c11.04659 0 19.999496-8.952906 19.999496-19.999496 0-11.04659-8.952906-19.999496-19.999496-19.999496L535.912619 295.072389 535.912619 183.078689l103.370299 0c11.04659 0 19.999496-8.952906 19.999496-19.999496 0-11.04659-8.952906-19.999496-19.999496-19.999496L535.912619 143.079696 535.912619 91.082438c0-11.04659-8.952906-19.999496-19.999496-19.999496-11.04659 0-19.999496 8.952906-19.999496 19.999496l0 396.83712c-120.800273 10.18599-215.989239 111.74299-215.989239 235.133252 0 130.126686 105.86205 235.988736 235.988736 235.988736s235.988736-105.86205 235.988736-235.988736C751.901859 599.662549 656.712893 498.105548 535.912619 487.919559zM515.913123 919.042553c-108.073414 0-195.990766-87.917352-195.990766-195.990766 0-108.069321 87.917352-195.990766 195.990766-195.990766s195.990766 87.921445 195.990766 195.990766C711.903889 831.125201 623.986537 919.042553 515.913123 919.042553z" p-id="3175"></path></svg>